<?xml version="1.0" encoding="UTF-8" standalone="no"?>
<!-- Created with Inkscape (http://www.inkscape.org/) -->

<svg
   xmlns:dc="http://purl.org/dc/elements/1.1/"
   xmlns:cc="http://creativecommons.org/ns#"
   xmlns:rdf="http://www.w3.org/1999/02/22-rdf-syntax-ns#"
   xmlns:svg="http://www.w3.org/2000/svg"
   xmlns="http://www.w3.org/2000/svg"
   version="1.1"
   width="32"
   height="32"
   id="svg3296">
  <defs
     id="defs3298" />
  <metadata
     id="metadata3301">
    <rdf:RDF>
      <cc:Work
         rdf:about="">
        <dc:format>image/svg+xml</dc:format>
        <dc:type
           rdf:resource="http://purl.org/dc/dcmitype/StillImage" />
        <dc:title></dc:title>
      </cc:Work>
    </rdf:RDF>
  </metadata>
  <g
     id="layer1">
    <g
       transform="matrix(1,0,0,0.9546908,0.60290784,0.51537776)"
       id="g3074">
      <path
         d="m 24.313379,7.8726921 a 9.9858522,9.365613 0 1 1 -19.9717042,0 9.9858522,9.365613 0 1 1 19.9717042,0 z"
         transform="matrix(0.93939045,0,0,1.0016017,1.7367198,1.6000121)"
         id="path3057"
         style="fill:#0000ff;stroke:#000000" />
      <path
         d="m 6.7229355,13.336264 c 8.7464625,18.639385 8.9213925,18.639385 8.9213925,18.639385 l 8.396605,-19.674906 0,0 0,0"
         id="path3072"
         style="fill:#0000ff;stroke:#000000;stroke-width:1;stroke-linecap:butt;stroke-linejoin:miter;stroke-opacity:1" />
    </g>
    <path
       d="m 17.862891,9.6093626 a 2.480957,2.2948854 0 1 1 -4.961914,0 2.480957,2.2948854 0 1 1 4.961914,0 z"
       transform="matrix(1.1446658,0,0,1.1040001,-1.9324516,-1.215458)"
       id="path3053"
       style="fill:#000000;fill-rule:evenodd;stroke:#000000;stroke-width:1px;stroke-linecap:butt;stroke-linejoin:miter;stroke-opacity:1" />
    <g
       transform="matrix(0.83694778,0,0,0.85103682,3.7172376,3.2404117)"
       id="g3153">
      <rect
         width="15.389485"
         height="9.8495817"
         x="16.323404"
         y="17.841972"
         id="rect3122"
         style="fill:#ffffff;stroke:#000000;stroke-width:0.75" />
      <path
         d="m 16.526988,20.194047 c 7.308443,4.338783 7.308443,4.338783 7.308443,4.338783 l 7.751379,-4.183827"
         id="path3124"
         style="fill:#ffffff;stroke:#000000;stroke-width:0.72351831;stroke-linecap:butt;stroke-linejoin:miter;stroke-opacity:1" />
    </g>
    <g
       transform="translate(15.236949,-17.922158)"
       id="g3222">
      <rect
         width="12.880196"
         height="8.3823566"
         x="-12.931326"
         y="36.405312"
         id="rect3122-7"
         style="fill:#008000;stroke:#000000;stroke-width:0.75" />
      <path
         d="m -4.751557,40.531204 a 1.8898238,1.7278389 0 1 1 -3.7796476,0 1.8898238,1.7278389 0 1 1 3.7796476,0 z"
         transform="matrix(1.3810808,0,0,1.3855571,2.7986911,-15.573099)"
         id="path3202"
         style="fill:#ffffff;stroke:#000000;stroke-width:0.54217499" />
      <rect
         width="1.7524525"
         height="1.2502409"
         x="-2.55007"
         y="34.398602"
         id="rect3122-7-9"
         style="fill:#008000;stroke:#000000;stroke-width:0.5" />
    </g>
  </g>
</svg>
